<svg xmlns="http://www.w3.org/2000/svg" viewBox="0 0 128 128"><path fill="#454B54" d="M89.5,82.4C89.5,82.4,89.5,82.4,89.5,82.4c-1.7,0-3-1.4-3-3l0-3.3c0-0.8-0.5-1.6-1.3-1.9c-7.6-2.9-15.6-4.4-23.8-4.4c-8.2,0-16.2,1.5-23.8,4.4c-0.8,0.3-1.3,1-1.3,1.9v1.5c0,1.7-1.3,3-3,3s-3-1.3-3-3v-1.5c0-3.3,2-6.3,5.1-7.5c8.3-3.2,17-4.8,26-4.8c8.9,0,17.6,1.6,25.9,4.8c3.1,1.2,5.1,4.2,5.1,7.5l0,3.3C92.5,81.1,91.2,82.4,89.5,82.4z"></path><path fill="#FFF" d="M84,119l-0.3,0.1c-14.3,6.3-30.5,6.2-44.7-0.1l0,0l0-71.6c0-2.1,1.3-4,3.2-4.7c13.5-5,28.5-4.6,41.8,1.3l0,0V119z"></path><path fill="#F59399" d="M69 48.2v75c5-.7 10-2.1 14.7-4.2L84 119V44C79.2 46.1 74.1 47.5 69 48.2zM54 48.2v75c5 .7 10 .7 15 0v-75C64 48.9 59 48.9 54 48.2z"></path><path fill="#E97583" d="M51 103.9c1.3.3 2.4.5 3 .5V88.3c-2.5.3-5 .4-7.5.4s-5-.1-7.5-.4v0C39 95.6 43.9 102.1 51 103.9zM54 104.3c2.5.3 12.5.3 15 0V88.3c-2.5.3-5 .4-7.5.4s-5-.1-7.5-.4V104.3zM69 104.3c5.1-.6 10.1-1.7 15-3.4V84.9c-4.9 1.7-9.9 2.8-15 3.4V104.3z"></path><path fill="#FFF" d="M54,93h5V48.7c-1.7-0.1-3.3-0.2-5-0.5V93z"></path><path fill="#E97583" d="M77,46.5v75c2.3-0.7,4.5-1.5,6.7-2.4L84,119V44C81.7,45,79.4,45.9,77,46.5z"></path><path fill="#454B54" d="M54,125c-1.7,0-3-1.3-3-3V48.3c0-1.7,1.3-3,3-3s3,1.3,3,3V122C57,123.7,55.7,125,54,125z"></path><path fill="#454B54" d="M61.5,126.8c-6.9,0-13.8-1.2-20.3-3.7c-3.1-1.1-5.2-4.2-5.2-7.5V51.2c0-2.6,1.2-4.9,3.2-6.4c2.1-1.5,4.7-2,7.1-1.2c9.3,2.8,19.3,3,28.7,0.5c-4.4-1.2-9-1.8-13.6-1.8c0,0,0,0,0,0c-1.7,0-3-1.3-3-3c0-1.7,1.3-3,3-3c0,0,0,0,0,0c7,0,13.8,1.2,20.3,3.7C84.9,41,87,44,87,47.4v68.3c0,3.3-2.1,6.3-5.2,7.5C75.3,125.6,68.4,126.8,61.5,126.8z M44,49.2c-0.4,0-0.9,0.1-1.2,0.4c-0.3,0.2-0.8,0.7-0.8,1.6v64.5c0,0.8,0.5,1.6,1.3,1.9c11.8,4.4,24.7,4.4,36.5,0c0.8-0.3,1.3-1,1.3-1.9V48.4c-11.7,4.1-24.5,4.4-36.4,0.9C44.4,49.2,44.2,49.2,44,49.2z"></path><path fill="#454B54" d="M69 125c-1.7 0-3-1.3-3-3V48.3c0-1.7 1.3-3 3-3s3 1.3 3 3V122C72 123.7 70.7 125 69 125zM61.5 44c-1.7 0-3-1.3-3-3 0-13.1 9.4-24.1 22.2-26.2 1.6-.3 3.2.8 3.5 2.5.3 1.6-.8 3.2-2.5 3.5-10 1.7-17.2 10.2-17.2 20.3C64.5 42.7 63.2 44 61.5 44z"></path><path fill="#F7DA30" d="M91.5,20c-0.8,0-1.6-0.3-2.1-0.9c-0.6-0.6-0.9-1.3-0.9-2.1s0.3-1.6,0.9-2.1c1.1-1.1,3.1-1.1,4.2,0c0.6,0.6,0.9,1.3,0.9,2.1s-0.3,1.6-0.9,2.1C93.1,19.7,92.3,20,91.5,20z"></path><path fill="#F1E9B4" d="M33.4,80c0-3.4,3.3-5.8,6.5-4.8c7,2.3,14.3,3.4,21.5,3.4S76,77.6,83,75.3c3.2-1.1,6.5,1.4,6.5,4.8v5.4c0,2.1-1.3,3.9-3.2,4.7c-8,3.1-16.4,4.6-24.9,4.6s-16.9-1.5-24.9-4.6c-1.9-0.7-3.2-2.6-3.2-4.7V80z"></path><path fill="#454B54" d="M98.5 12c-.9 0-1.8-.4-2.3-1.1-1-1.3-.8-3.2.5-4.2l5-4c1.3-1 3.2-.8 4.2.5 1 1.3.8 3.2-.5 4.2l-5 4C99.8 11.8 99.2 12 98.5 12zM104.5 32c-.6 0-1.1-.2-1.7-.5l-6-4c-1.4-.9-1.8-2.8-.8-4.2.9-1.4 2.8-1.8 4.2-.8l6 4c1.4.9 1.8 2.8.8 4.2C106.4 31.6 105.5 32 104.5 32zM111.5 20h-7c-1.7 0-3-1.3-3-3s1.3-3 3-3h7c1.7 0 3 1.3 3 3S113.2 20 111.5 20zM61.5 97.8c-8.9 0-17.7-1.6-26-4.8-3-1.2-5.1-4.2-5.1-7.5v-6.7c0-2.3 1.2-4.5 3.1-5.8 1.9-1.3 4.4-1.6 6.6-.7 1.5.6 2.3 2.3 1.7 3.9s-2.3 2.3-3.9 1.7c-.5-.2-.8 0-1 .1-.2.1-.5.4-.5.9v6.7c0 .8.5 1.6 1.3 1.9 7.6 2.9 15.6 4.4 23.8 4.4s16.2-1.5 23.8-4.4c.8-.3 1.3-1 1.3-1.9V80c0-.6-.3-1.2-.8-1.6-.5-.4-1.2-.5-1.8-.3-7.3 2.4-14.8 3.6-22.5 3.6-4.3 0-8.6-.4-12.9-1.2-1.6-.3-2.7-1.9-2.4-3.5.3-1.6 1.9-2.7 3.5-2.4 3.9.7 7.9 1.1 11.8 1.1 7 0 13.9-1.1 20.6-3.3 2.5-.8 5.1-.4 7.2 1.1 2.1 1.5 3.3 3.9 3.3 6.5v5.4c0 3.3-2 6.3-5.1 7.5C79.2 96.1 70.4 97.8 61.5 97.8z"></path></svg>