<svg xmlns="http://www.w3.org/2000/svg" viewBox="0 0 128 128"><path fill="#ed5d64" d="M46.1,30.1c7.2,0,13.7,3.1,17.9,8c4.4-4.9,10.9-8,17.9-8c13.2,0,24.1,10.5,24.1,23.6 c0,7.4-3.5,13.9-8.8,18.2l0,0L64,97.6L31.4,72.4l0,0C25.6,68,22,61.3,22,53.7C22,40.8,32.7,30.1,46.1,30.1z"></path><path fill="#e780b3" d="M46.1,30.1c7.2,0,13.7,3.1,17.9,8c4.4-4.9,10.9-8,17.9-8c13.2,0,24.1,10.5,24.1,23.6 c0,7.4-3.5,13.9-8.8,18.2L64,97.6L31.4,72.4C25.6,68,22,61.3,22,53.7C22,40.8,32.7,30.1,46.1,30.1"></path><path fill="#d174a3" d="M81.9,30.1c-2.3,0-4.5,0.3-6.6,0.9c9.9,2.8,17.2,11.8,17.2,22.6c0,7.4-3.6,10.2-8.8,18.2L64,97.6 l33.2-25.7c5.3-4.3,8.8-10.8,8.8-18.2C106,40.6,95.1,30.1,81.9,30.1"></path><path fill="#fae6f0" d="M46.1,37.6c-9.1,0-16.4,7.2-16.4,16.1c0,1.7,1.3,3,3,3c1.6,0,3-1.3,3-3c0-5.6,4.7-10.1,10.4-10.1 c1.7,0,3-1.3,3-3C49.1,38.9,47.8,37.6,46.1,37.6"></path><path fill="#454b54" d="M64,100.6c-0.6,0-1.3-0.2-1.8-0.6L29.6,74.7C22.9,69.7,19,62,19,53.7C19,39,31.1,27.1,46.1,27.1 c6.8,0,13.2,2.4,18,6.8c4.9-4.3,11.3-6.8,17.9-6.8c14.9,0,27.1,11.9,27.1,26.6c0,7.9-3.6,15.4-9.9,20.5L65.8,100 C65.3,100.4,64.6,100.6,64,100.6z M46.1,33.1C34.5,33.1,25,42.4,25,53.7c0,6.4,3,12.4,8.2,16.2L64,93.8l31.4-24.3 c4.8-3.9,7.6-9.7,7.6-15.8c0-11.3-9.5-20.6-21.1-20.6c-6,0-11.7,2.6-15.7,7c-0.6,0.6-1.4,1-2.3,1c-0.9,0-1.7-0.4-2.2-1 C57.9,35.7,52.2,33.1,46.1,33.1z"></path></svg>