<svg xmlns="http://www.w3.org/2000/svg" viewBox="0 0 128 128"><path fill="#b8abc9" d="M116.2,37.1c1.8-1.7,2.8-4.1,2.8-6.6v-3.4C119,17,94.4,8.8,64,8.8c-30.4,0-55,8.1-55,18.3v3.4 c0,2.5,1,4.9,2.8,6.6l37.7,38.1c3.4,3.4,5.3,8.1,5.3,12.9v23.1c0,1.4,1.4,2.2,2.7,1.6l13.1-6.6c1.6-0.8,2.5-2.4,2.5-4.1v-14 c0-4.8,1.9-9.5,5.3-12.9L116.2,37.1"></path><path fill="#a69bb6" d="M64,8.8c-1.7,0-3.5,0-5.2,0.1c26.3,1.3,46.4,8.9,46.4,18.1v3.4c0,2.5-1,4.9-2.8,6.6L72.1,75.2 c-3.1,4.2-5.3,8.1-5.3,12.9v14.1c0,0,0.3,4.9-0.8,6.3l4.6-2.3c1.6-0.8,2.5-2.4,2.5-4.1v-14c0-4.8,1.9-9.5,5.3-12.9l37.8-38.1 c1.8-1.7,2.8-4.1,2.8-6.6v-3.4C119,17,94.4,8.8,64,8.8"></path><path fill="#454b54" d="M56.7,116L56.7,116c-2.7,0-4.8-2.2-4.8-4.8V88.1c0-4.1-1.6-7.9-4.4-10.8L9.7,39.2 C7.4,37,6,33.8,6,30.5v-3.4C6,13.2,35.9,5.7,64,5.7s58,7.5,58,21.3v3.4c0,3.3-1.4,6.5-3.7,8.7l-37.7,38c-2.9,2.9-4.4,6.7-4.4,10.8 V102c0,2.9-1.6,5.5-4.2,6.8l-13.1,6.6C58.1,115.9,57.4,116,56.7,116z M64,11.7c-32.2,0-52,8.9-52,15.3v3.4c0,1.7,0.7,3.3,1.9,4.4 l37.8,38.1c4,4,6.2,9.4,6.2,15v21.2l11.5-5.7c0.5-0.3,0.9-0.8,0.9-1.4V88.1c0-5.7,2.2-11,6.2-15L114.1,35c1.2-1.2,1.9-2.8,1.9-4.5 v-3.4C116,20.7,96.2,11.7,64,11.7z"></path><path fill="#fff" d="M64,29.8c-14.5,0-28.1-2-37.3-5.6l-2.2-0.9l2.2-0.9C35.9,19,49.5,17,64,17s28.1,2,37.3,5.6l2.2,0.9 l-2.2,0.9C92.1,27.8,78.5,29.8,64,29.8z"></path><path fill="#454b54" d="M64 32.8c-14.8 0-28.8-2.1-38.4-5.8l-2.2-.9c-1.2-.4-1.9-1.6-1.9-2.8s.8-2.4 1.9-2.8l2.2-.9c1.6-.6 3.3.2 3.9 1.7.1.2.1.4.2.7 8.8 3 21.2 4.7 34.4 4.7S89.6 25 98.5 22c0-.2.1-.4.2-.7.6-1.5 2.3-2.3 3.9-1.7l2.2.9c1.2.4 1.9 1.6 1.9 2.8s-.8 2.4-1.9 2.8l-2.2.9C92.8 30.7 78.8 32.8 64 32.8zM64 45.7c-1.7 0-3-1.3-3-3s1.3-3 3-3c19.9 0 31.8-3.7 35.9-5.3 1.6-.6 3.3.2 3.9 1.7s-.2 3.3-1.7 3.9C92.6 43.6 78.7 45.7 64 45.7z"></path></svg>