<svg xmlns="http://www.w3.org/2000/svg" viewBox="0 0 128 128"><path fill="#FFF" d="M34 49H94V99H34z"></path><path fill="#C7D7E2" d="M34 59H58V79H34z"></path><path fill="#FFF" d="M44 38H84V48H44z"></path><path fill="#454B54" d="M84 51H44c-1.7 0-3-1.3-3-3V38c0-1.7 1.3-3 3-3h40c1.7 0 3 1.3 3 3v10C87 49.7 85.7 51 84 51zM47 45h34v-4H47V45zM64 31c-1.7 0-3-1.3-3-3V18c0-1.7 1.3-3 3-3 1.7 0 3 1.3 3 3v10C67 29.7 65.7 31 64 31z"></path><path fill="#C7D7E2" d="M91.4,92L91.4,92c-1.8,0-3.1-1.3-3.1-3s1.3-3,3-3s3,1.3,3,3S93,92,91.4,92z M82.3,92h-0.1c-1.7,0-3-1.3-3-3s1.3-3,3-3h0.1c1.7,0,3,1.3,3,3S83.9,92,82.3,92z M73.2,92L73.2,92c-1.8,0-3.1-1.3-3.1-3s1.3-3,3-3s3,1.3,3,3S74.8,92,73.2,92z M64.1,92H64c-1.7,0-3-1.3-3-3s1.3-3,3-3h0.1c1.7,0,3,1.3,3,3S65.7,92,64.1,92z M55,92h-0.1c-1.7,0-3-1.3-3-3s1.3-3,3-3H55c1.7,0,3,1.3,3,3S56.6,92,55,92z M45.9,92h-0.1c-1.7,0-3-1.3-3-3s1.3-3,3-3h0.1c1.7,0,3,1.3,3,3S47.5,92,45.9,92z M36.8,92h-0.1c-1.7,0-3-1.3-3-3s1.3-3,3-3h0.1c1.7,0,3,1.3,3,3S38.4,92,36.8,92z"></path><path fill="#454B54" d="M94,102H34c-1.7,0-3-1.3-3-3V49c0-1.7,1.3-3,3-3h60c1.7,0,3,1.3,3,3v50C97,100.7,95.7,102,94,102z M37,96h54V52H37V96z"></path><path fill="#454B54" d="M33 122H23c-1.7 0-3-1.3-3-3s1.3-3 3-3h8.5l14.1-18.8c1-1.3 2.9-1.6 4.2-.6 1.3 1 1.6 2.9.6 4.2l-15 20C34.8 121.6 33.9 122 33 122zM105 122H95c-.9 0-1.8-.4-2.4-1.2l-15-20c-1-1.3-.7-3.2.6-4.2 1.3-1 3.2-.7 4.2.6L96.5 116h8.5c1.7 0 3 1.3 3 3S106.7 122 105 122zM64 122c-1.7 0-3-1.3-3-3V99c0-1.7 1.3-3 3-3 1.7 0 3 1.3 3 3v20C67 120.7 65.7 122 64 122z"></path></svg>